<?xml version="1.0" encoding="UTF-8"?>
<svg xmlns="http://www.w3.org/2000/svg" xmlns:xlink="http://www.w3.org/1999/xlink" width="150px" height="px" viewBox="0 0 150 150" version="1.1">
<g id="surface1">
<path style=" stroke:none;fill-rule:nonzero;fill:rgb(86.666667%,18.039216%,26.666668%);fill-opacity:1;" d="M 56.621094 110.503906 C 55.382812 108.441406 55.4375 105.851562 56.765625 103.839844 L 75.078125 76.148438 L 50.101562 54.738281 C 47.785156 52.753906 47.242188 49.390625 48.808594 46.773438 L 66.742188 16.890625 C 59.789062 11.472656 51.097656 8.183594 41.597656 8.183594 C 18.886719 8.183594 0.480469 26.585938 0.480469 49.300781 C 0.480469 52.515625 0.886719 55.632812 1.585938 58.636719 C 7.296875 94.113281 46.734375 131.535156 75 141.808594 C 75.105469 141.769531 75.214844 141.714844 75.320312 141.675781 Z M 56.621094 110.503906 "/>
<path style=" stroke:none;fill-rule:nonzero;fill:rgb(86.666667%,18.039216%,26.666668%);fill-opacity:1;" d="M 108.410156 8.191406 C 96.886719 8.191406 86.542969 12.988281 79.085938 20.621094 L 62.246094 48.691406 L 87.410156 70.257812 C 89.800781 72.308594 90.289062 75.820312 88.550781 78.449219 L 69.367188 107.457031 L 86.703125 136.355469 C 113.113281 121.648438 143.457031 89.425781 148.410156 58.648438 C 149.117188 55.644531 149.523438 52.527344 149.523438 49.3125 C 149.519531 26.597656 131.113281 8.191406 108.410156 8.191406 Z M 108.410156 8.191406 "/>
</g>
</svg>
