<?xml version="1.0" encoding="UTF-8"?>
<svg xmlns="http://www.w3.org/2000/svg" xmlns:xlink="http://www.w3.org/1999/xlink" width="150px" height="px" viewBox="0 0 150 150" version="1.1">
<g id="surface1">
<path style=" stroke:none;fill-rule:nonzero;fill:rgb(95.686275%,67.058825%,72.941178%);fill-opacity:1;" d="M 149.902344 69.464844 C 148.863281 88.523438 115.761719 103.832031 75 103.832031 C 61.3125 103.832031 48.535156 102.074219 37.5 99.0625 L 37.5 114.011719 C 48.542969 118.273438 61.324219 120.757812 75 120.757812 C 116.421875 120.757812 150 98.371094 150 70.757812 C 150 70.324219 149.917969 69.894531 149.902344 69.464844 Z M 112.5 27.5 C 101.476562 23.234375 88.679688 20.761719 75 20.761719 C 37.425781 20.761719 6.394531 39.203125 0.941406 63.238281 C 6.394531 46.273438 37.425781 33.257812 75 33.257812 C 88.679688 33.257812 101.476562 35 112.5 38.015625 Z M 112.5 27.5 "/>
<path style=" stroke:none;fill-rule:nonzero;fill:rgb(86.666667%,18.039216%,26.666668%);fill-opacity:1;" d="M 103.207031 82.144531 C 103.207031 66.492188 90.519531 53.808594 74.871094 53.808594 C 65.371094 53.808594 56.988281 58.496094 51.847656 65.664062 C 46.703125 58.496094 38.316406 53.808594 28.820312 53.808594 C 13.171875 53.808594 0.484375 66.492188 0.484375 82.144531 C 0.484375 84.359375 0.761719 86.515625 1.246094 88.582031 C 5.183594 113.027344 32.363281 138.828125 51.847656 145.910156 C 71.324219 138.828125 98.511719 113.027344 102.4375 88.589844 C 102.925781 86.515625 103.207031 84.359375 103.207031 82.144531 Z M 149.519531 23.722656 C 149.519531 12.878906 140.734375 4.089844 129.890625 4.089844 C 123.3125 4.089844 117.503906 7.339844 113.941406 12.308594 C 110.378906 7.347656 104.570312 4.089844 97.996094 4.089844 C 87.152344 4.089844 78.367188 12.878906 78.367188 23.722656 C 78.367188 25.257812 78.5625 26.75 78.894531 28.179688 C 81.621094 45.113281 100.449219 62.984375 113.941406 67.882812 C 127.433594 62.980469 146.265625 45.113281 148.992188 28.183594 C 149.324219 26.75 149.519531 25.257812 149.519531 23.722656 Z M 149.519531 23.722656 "/>
</g>
</svg>
